# xmcd
#
# Track frame offsets:
#	150
#	15327
#	28954
#	40756
#	46508
#	59460
#	73462
#	90639
#	101291
#	114568
#	129319
#	172749
#	190233
#	202425
#	216515
#	232192
#	252289
#	267556
#	282988
#	304910
#	322704
#
# Disc length: 4519 seconds
#
# Revision: 2
# Processed by: cddbd v1.4PL0 Copyright (c) Steve Scherf et al.
# Submitted via: EasyCDDAExtractor 5.1.0
#
DISCID=3511a515
DTITLE=Fabrizio De André - Canzoni
DYEAR=1970
DGENRE=Acapella
TTITLE0=La canzone di Marinella
TTITLE1=Il Gorilla
TTITLE2=La Ballata dell'Eroe
TTITLE3=S'i' Fosse Poco
TTITLE4=Amore che vieni, amore che vai
TTITLE5=La guerra di Piero
TTITLE6=Il testamento
TTITLE7=Nell'Acqua della chiara fontana
TTITLE8=La ballata del Miche'
TTITLE9=Il re fa rullare i tamburi
TTITLE10=Via della Povertà
TTITLE11=Le Passanti
TTITLE12=Fila la lana
TTITLE13=Ballata dell'amore cieco
TTITLE14=Suzanne
TTITLE15=Morire per delle idee
TTITLE16=Canzone dell'amore perduto
TTITLE17=La città viecchia
TTITLE18=Giovanna d'Arco
TTITLE19=Delitto di Paese
TTITLE20=Valzer per un amore
EXTD=
EXTT0=
EXTT1=
EXTT2=
EXTT3=
EXTT4=
EXTT5=
EXTT6=
EXTT7=
EXTT8=
EXTT9=
EXTT10=
EXTT11=
EXTT12=
EXTT13=
EXTT14=
EXTT15=
EXTT16=
EXTT17=
EXTT18=
EXTT19=
EXTT20=
PLAYORDER=
